**ABCDEFGHIJKLMNOPQRSTUVWXYZabcdefghijklmnopqrstuvwxyz**************************
**PARASOLID !"#$%&'()*+,-./:;<=>?@[\]^_`{|}~0123456789**************************
**PART1;
MC=AMD64;
MC_MODEL=Intel64 Family 6 Model 94 Stepping 3, GenuineIntel;
MC_ID=unknown;
OS=Windows_NT;
OS_RELEASE=unknown;
FRU=Parasolid Version 32.1, build 230,  5-23-2020;
APPL=SOLIDWORKS 2021-2020273;
SITE=;
USER=unknown;
FORMAT=text;
GUISE=transmit;
KEY=makeProjectedPlanarWire;
FILE=makeProjectedPlanarWire.x_t;
DATE=Fri Sep 27 09:33:08 2024;
**PART2;
SCH=SCH_3201230_32001;
USFLD_SIZE=0;
**PART3;
**END_OF_HEADER*****************************************************************
T51 : TRANSMIT FILE created by modeller version 320123023 SCH_3201230_32001_1300
6229 0 12 34 CCCCCCI4 mesh1006 0 I8 polyline1008 0 CCCCCCCDI5 owner1040 0 CCCCCC
I13 boundary_mesh1006 0 I17 boundary_polyline1008 0 CCCA16 index_map_offset0 0 1
 dA9 index_map82 0 A17 node_id_index_map82 0 A20 schema_embedding_map82 0 A5 chi
ld12 0 A14 lowest_node_id0 0 1 dA16 mesh_offset_data206 0 Z1 589 0 0 0 0 0 0 0 0
 1e3 1e-8 0 2 0 1 0 3 1 3 4 5 6 0 0 7 8 9 0 0 0 0 0 0 0 13 255 3 154 0 1 0 10 0
 0 7 10 50 255 4 3 0 10 0 0 0 +0 0 -.036 0 0 1 1 0 0 31 255 5 101 0 8 11 0 0 --.
003 -.002645751311064605 -.036 0 0 1 1 0 0 .002 29 255 6 152 0 9 12 0 -.005 -.00
2645751311064605 -.036 19 8 CCCCCCCA5 owner12 0 Z7 153 0 1 0 0 3 V0 16 255 8 99
 0 ?13 0 14 5 0 0 1 18 255 9 150 0 15 0 16 6 ?1 17 255 15 0 0 0 0 9 17 18 0 13 -
18 16 147 0 19 9 20 12 ?1 17 19 0 21 13 22 16 23 14 0 24 -18 20 144 0 22 16 25 2
6 ?1 29 12 149 0 16 26 6 -.0045 -.003968626966596905 -.036 29 26 146 0 20 27 12
 .0045 -.00396862696659691 -.036 29 27 143 0 25 28 26 .005 -.002645751311064605
 -.036 18 25 141 0 29 20 30 27 ?1 29 28 140 0 30 31 27 .005 .002645751311064605
 -.036 18 30 138 0 32 25 33 28 ?1 29 31 137 0 33 34 28 .0045 .00396862696659691
 -.036 18 33 135 0 35 30 36 31 ?1 29 34 134 0 36 37 31 -.0045 .00396862696659690
5 -.036 18 36 132 0 38 33 39 34 ?1 29 37 131 0 39 40 34 -.005 .00264575131106460
5 -.036 18 39 129 0 17 36 41 37 ?1 29 40 128 0 41 42 37 -.0025 .00925 -.036 18 4
1 126 0 43 39 44 40 ?1 29 42 125 0 44 45 40 .0025 .00925 -.036 18 44 123 0 46 41
 47 42 ?1 29 45 122 0 47 48 42 .0075 .00425 -.036 18 47 120 0 49 44 50 45 ?1 29
 48 119 0 50 51 45 .0075 -.00425 -.036 18 50 117 0 52 47 53 48 ?1 29 51 116 0 53
 54 48 .0025 -.00925 -.036 18 53 114 0 55 50 56 51 ?1 29 54 113 0 56 57 51 -.002
5 -.00925 -.036 18 56 111 0 58 53 59 54 ?1 29 57 110 0 59 60 54 -.0075 -.00425 -
.036 18 59 108 0 61 56 62 57 ?1 29 60 107 0 62 0 57 -.0075 .00425 -.036 18 62 10
5 0 63 59 0 60 ?1 17 63 0 64 61 65 62 43 66 0 67 -15 255 64 7 0 63 10 21 17 61 0
 64 58 63 59 67 68 0 69 +17 65 0 64 63 46 41 70 71 0 0 -17 43 0 0 0 0 41 63 66 0
 65 +16 66 9 0 ?43 68 0 72 0 0 1 17 67 0 0 0 0 62 61 68 0 0 -16 68 15 0 ?61 73 6
6 74 0 0 1 16 73 21 0 ?69 75 68 76 0 0 1 30 255 74 17 0 68 72 76 0 +-.0075 0 -.0
36 0 -1 0 31 72 11 0 66 0 74 0 --.0025 .00425 -.036 0 0 1 1 0 0 .005 31 76 23 0
 73 74 77 0 --.0025 -.00425 -.036 0 0 1 1 0 0 .005 30 77 29 0 75 76 78 0 +0 -.00
925 -.036 1 0 0 16 75 27 0 ?55 79 73 77 0 0 1 31 78 35 0 79 77 80 0 -.0025 -.004
25 -.036 0 0 1 1 0 0 .005 16 79 33 0 ?81 82 75 78 0 0 1 30 80 41 0 82 78 83 0 +.
0075 0 -.036 0 -1 0 16 82 39 0 ?84 85 79 80 0 0 1 31 83 47 0 85 80 86 0 +.0025 .
00425 -.036 0 0 1 1 0 0 .005 16 85 45 0 ?46 71 82 83 0 0 1 30 86 53 0 71 83 87 0
 +0 .00925 -.036 1 0 0 16 71 51 0 ?70 18 85 86 0 0 1 30 87 59 0 18 86 88 0 +-.00
5 0 -.036 0 1 0 16 18 57 0 ?17 89 71 87 0 0 1 31 88 65 0 89 87 90 0 --.003 .0026
45751311064605 -.036 0 0 1 1 0 0 .002 16 89 63 0 ?38 91 18 88 0 0 1 31 90 71 0 9
1 88 92 0 +0 0 -.036 0 0 1 1 0 0 .006 16 91 69 0 ?93 94 89 90 0 0 1 31 92 77 0 9
4 90 95 0 +.003 .002645751311064605 -.036 0 0 1 1 0 0 .002 16 94 75 0 ?96 97 91
 92 0 0 1 30 95 83 0 97 92 98 0 +.005 0 -.036 0 1 0 16 97 81 0 ?99 100 94 95 0 0
 1 31 98 89 0 100 95 11 0 -.003 -.002645751311064605 -.036 0 0 1 1 0 0 .002 16 1
00 87 0 ?22 14 97 98 0 0 1 31 11 95 0 14 98 5 0 +0 0 -.036 0 0 1 1 0 0 .006 16 1
4 93 0 ?23 8 100 11 0 0 1 17 23 0 0 0 0 20 19 14 0 0 +17 22 0 21 19 29 20 101 10
0 0 23 +15 21 8 0 17 10 0 17 29 0 21 22 32 25 99 97 0 101 -17 101 0 0 0 0 25 22
 100 0 0 -17 32 0 21 29 35 30 96 94 0 99 -17 99 0 0 0 0 30 29 97 0 0 +17 35 0 21
 32 38 33 93 91 0 96 -17 96 0 0 0 0 33 32 94 0 0 +17 38 0 21 35 17 36 102 89 0 9
3 +17 93 0 0 0 0 36 35 91 0 0 +17 17 0 21 38 13 39 15 18 0 102 +17 102 0 0 0 0 3
9 38 89 0 0 -17 13 0 21 17 19 9 24 8 0 0 +17 24 0 0 0 0 16 13 8 0 0 -14 255 10 1
 0 ?0 0 64 3 4 +0 0 0 0 3 17 70 0 0 0 0 44 65 71 0 0 +17 46 0 64 65 49 44 103 85
 0 70 +17 49 0 64 46 52 47 84 82 0 103 -17 103 0 0 0 0 47 46 85 0 0 -17 52 0 64
 49 55 50 81 79 0 84 -17 84 0 0 0 0 50 49 82 0 0 +17 55 0 64 52 58 53 104 75 0 8
1 +17 81 0 0 0 0 53 52 79 0 0 +17 58 0 64 55 61 56 69 73 0 104 -17 104 0 0 0 0 5
6 55 75 0 0 -17 69 0 0 0 0 59 58 73 0 0 +1 0 
